<svg xmlns="http://www.w3.org/2000/svg" width="40" height="40" viewBox="0 0 40 40" fill="none">
  <!-- Círculo de fundo laranja -->
  <circle cx="20" cy="20" r="20" fill="#ff7011"/>
  
  <!-- Ícone do caminhão centralizado -->
  <g transform="translate(8, 8)">
    <path d="M14 18V6a2 2 0 0 0-2-2H4a2 2 0 0 0-2 2v11a1 1 0 0 0 1 1h2" stroke="white" stroke-width="2" stroke-linecap="round" stroke-linejoin="round"/>
    <path d="M15 18H9" stroke="white" stroke-width="2" stroke-linecap="round" stroke-linejoin="round"/>
    <path d="M19 18h2a1 1 0 0 0 1-1v-3.65a1 1 0 0 0-.22-.624l-3.48-4.35A1 1 0 0 0 17.52 8H14" stroke="white" stroke-width="2" stroke-linecap="round" stroke-linejoin="round"/>
    <circle cx="17" cy="18" r="2" stroke="white" stroke-width="2"/>
    <circle cx="7" cy="18" r="2" stroke="white" stroke-width="2"/>
  </g>
</svg>